<?xml version="1.0" standalone="no"?>
<!DOCTYPE svg PUBLIC "-//W3C//DTD SVG 1.1//EN" "http://www.w3.org/Graphics/SVG/1.1/DTD/svg11.dtd">
<svg width="60mm" height="60mm" viewBox="-30 -30 60 60" xmlns="http://www.w3.org/2000/svg" version="1.1">
<title>OpenSCAD Model</title>
<path d="
M 27.5853,29.9424 L 28.1481,29.7716 L 28.6667,29.4944 L 29.1213,29.1213 L 29.4944,28.6667 L 29.7716,28.1481
 L 29.9424,27.5853 L 30,27 L 30,-27 L 29.9424,-27.5853 L 29.7716,-28.1481 L 29.4944,-28.6667
 L 29.1213,-29.1213 L 28.6667,-29.4944 L 28.1481,-29.7716 L 27.5853,-29.9424 L 27,-30 L -27,-30
 L -27.5853,-29.9424 L -28.1481,-29.7716 L -28.6667,-29.4944 L -29.1213,-29.1213 L -29.4944,-28.6667 L -29.7716,-28.1481
 L -29.9424,-27.5853 L -30,-27 L -30,27 L -29.9424,27.5853 L -29.7716,28.1481 L -29.4944,28.6667
 L -29.1213,29.1213 L -28.6667,29.4944 L -28.1481,29.7716 L -27.5853,29.9424 L -27,30 L 27,30
 z
M -23.4389,-20.7932 L -23.861,-20.9213 L -24.25,-21.1292 L -24.591,-21.409 L -24.8708,-21.75 L -25.0787,-22.139
 L -25.2068,-22.561 L -25.25,-23 L -25.2068,-23.4389 L -25.0787,-23.861 L -24.8708,-24.25 L -24.591,-24.591
 L -24.25,-24.8708 L -23.861,-25.0787 L -23.4389,-25.2068 L -23,-25.25 L -22.561,-25.2068 L -22.139,-25.0787
 L -21.75,-24.8708 L -21.409,-24.591 L -21.1292,-24.25 L -20.9213,-23.861 L -20.7932,-23.4389 L -20.75,-23
 L -20.7932,-22.561 L -20.9213,-22.139 L -21.1292,-21.75 L -21.409,-21.409 L -21.75,-21.1292 L -22.139,-20.9213
 L -22.561,-20.7932 L -23,-20.75 z
M 22.561,-20.7932 L 22.139,-20.9213 L 21.75,-21.1292 L 21.409,-21.409 L 21.1292,-21.75 L 20.9213,-22.139
 L 20.7932,-22.561 L 20.75,-23 L 20.7932,-23.4389 L 20.9213,-23.861 L 21.1292,-24.25 L 21.409,-24.591
 L 21.75,-24.8708 L 22.139,-25.0787 L 22.561,-25.2068 L 23,-25.25 L 23.4389,-25.2068 L 23.861,-25.0787
 L 24.25,-24.8708 L 24.591,-24.591 L 24.8708,-24.25 L 25.0787,-23.861 L 25.2068,-23.4389 L 25.25,-23
 L 25.2068,-22.561 L 25.0787,-22.139 L 24.8708,-21.75 L 24.591,-21.409 L 24.25,-21.1292 L 23.861,-20.9213
 L 23.4389,-20.7932 L 23,-20.75 z
M -23.4389,25.2068 L -23.861,25.0787 L -24.25,24.8708 L -24.591,24.591 L -24.8708,24.25 L -25.0787,23.861
 L -25.2068,23.4389 L -25.25,23 L -25.2068,22.561 L -25.0787,22.139 L -24.8708,21.75 L -24.591,21.409
 L -24.25,21.1292 L -23.861,20.9213 L -23.4389,20.7932 L -23,20.75 L -22.561,20.7932 L -22.139,20.9213
 L -21.75,21.1292 L -21.409,21.409 L -21.1292,21.75 L -20.9213,22.139 L -20.7932,22.561 L -20.75,23
 L -20.7932,23.4389 L -20.9213,23.861 L -21.1292,24.25 L -21.409,24.591 L -21.75,24.8708 L -22.139,25.0787
 L -22.561,25.2068 L -23,25.25 z
M 22.561,25.2068 L 22.139,25.0787 L 21.75,24.8708 L 21.409,24.591 L 21.1292,24.25 L 20.9213,23.861
 L 20.7932,23.4389 L 20.75,23 L 20.7932,22.561 L 20.9213,22.139 L 21.1292,21.75 L 21.409,21.409
 L 21.75,21.1292 L 22.139,20.9213 L 22.561,20.7932 L 23,20.75 L 23.4389,20.7932 L 23.861,20.9213
 L 24.25,21.1292 L 24.591,21.409 L 24.8708,21.75 L 25.0787,22.139 L 25.2068,22.561 L 25.25,23
 L 25.2068,23.4389 L 25.0787,23.861 L 24.8708,24.25 L 24.591,24.591 L 24.25,24.8708 L 23.861,25.0787
 L 23.4389,25.2068 L 23,25.25 z
" stroke="black" fill="lightgray" stroke-width="0.5"/>
</svg>
