<?xml version="1.0" standalone="no"?>
<!DOCTYPE svg PUBLIC "-//W3C//DTD SVG 1.1//EN" "http://www.w3.org/Graphics/SVG/1.1/DTD/svg11.dtd">
<svg width="46mm" height="46mm" viewBox="-23 -23 46 46" xmlns="http://www.w3.org/2000/svg" version="1.1">
<title>OpenSCAD Model</title>
<path d="
M 1.17755,22.4692 L 2.35188,22.3767 L 3.51978,22.223 L 4.67801,22.0083 L 5.82343,21.7333 L 6.95288,21.3988
 L 8.06328,21.0056 L 9.15157,20.5548 L 10.2148,20.0476 L 11.25,19.4856 L 12.2544,18.8701 L 13.2252,18.2029
 L 14.1597,17.4858 L 15.0554,16.7207 L 15.9099,15.9099 L 16.7207,15.0554 L 17.4858,14.1597 L 18.2029,13.2252
 L 18.8701,12.2544 L 19.4856,11.25 L 20.0476,10.2148 L 20.5548,9.15157 L 21.0056,8.06328 L 21.3988,6.95288
 L 21.7333,5.82343 L 22.0083,4.67801 L 22.223,3.51978 L 22.3767,2.35188 L 22.4692,1.17755 L 22.5,-0
 L 22.4692,-1.17755 L 22.3767,-2.35188 L 22.223,-3.51978 L 22.0083,-4.67801 L 21.7333,-5.82343 L 21.3988,-6.95288
 L 21.0056,-8.06328 L 20.5548,-9.15157 L 20.0476,-10.2148 L 19.4856,-11.25 L 18.8701,-12.2544 L 18.2029,-13.2252
 L 17.4858,-14.1597 L 16.7207,-15.0554 L 15.9099,-15.9099 L 15.0554,-16.7207 L 14.1597,-17.4858 L 13.2252,-18.2029
 L 12.2544,-18.8701 L 11.25,-19.4856 L 10.2148,-20.0476 L 9.15157,-20.5548 L 8.06328,-21.0056 L 6.95288,-21.3988
 L 5.82343,-21.7333 L 4.67801,-22.0083 L 3.51978,-22.223 L 2.35188,-22.3767 L 1.17755,-22.4692 L 0,-22.5
 L -1.17755,-22.4692 L -2.35188,-22.3767 L -3.51978,-22.223 L -4.67801,-22.0083 L -5.82343,-21.7333 L -6.95288,-21.3988
 L -8.06328,-21.0056 L -9.15157,-20.5548 L -10.2148,-20.0476 L -11.25,-19.4856 L -12.2544,-18.8701 L -13.2252,-18.2029
 L -14.1597,-17.4858 L -15.0554,-16.7207 L -15.9099,-15.9099 L -16.7207,-15.0554 L -17.4858,-14.1597 L -18.2029,-13.2252
 L -18.8701,-12.2544 L -19.4856,-11.25 L -20.0476,-10.2148 L -20.5548,-9.15157 L -21.0056,-8.06328 L -21.3988,-6.95288
 L -21.7333,-5.82343 L -22.0083,-4.67801 L -22.223,-3.51978 L -22.3767,-2.35188 L -22.4692,-1.17755 L -22.5,-0
 L -22.4692,1.17755 L -22.3767,2.35188 L -22.223,3.51978 L -22.0083,4.67801 L -21.7333,5.82343 L -21.3988,6.95288
 L -21.0056,8.06328 L -20.5548,9.15157 L -20.0476,10.2148 L -19.4856,11.25 L -18.8701,12.2544 L -18.2029,13.2252
 L -17.4858,14.1597 L -16.7207,15.0554 L -15.9099,15.9099 L -15.0554,16.7207 L -14.1597,17.4858 L -13.2252,18.2029
 L -12.2544,18.8701 L -11.25,19.4856 L -10.2148,20.0476 L -9.15157,20.5548 L -8.06328,21.0056 L -6.95288,21.3988
 L -5.82343,21.7333 L -4.67801,22.0083 L -3.51978,22.223 L -2.35188,22.3767 L -1.17755,22.4692 L 0,22.5
 z
M -10.2224,-5.75581 L -10.4442,-5.77327 L -10.6648,-5.80232 L -10.8836,-5.84286 L -11.1,-5.89481 L -11.3133,-5.95801
 L -11.5231,-6.03227 L -11.7286,-6.11743 L -11.9295,-6.21321 L -12.125,-6.31938 L -12.3147,-6.43564 L -12.4981,-6.56168
 L -12.6746,-6.69713 L -12.8438,-6.84163 L -13.0052,-6.99478 L -13.1584,-7.15619 L -13.3029,-7.32538 L -13.4383,-7.50191
 L -13.5643,-7.68527 L -13.6806,-7.875 L -13.7868,-8.07053 L -13.8826,-8.27136 L -13.9677,-8.47693 L -14.042,-8.68668
 L -14.1052,-8.90001 L -14.1571,-9.11636 L -14.1977,-9.33514 L -14.2267,-9.55574 L -14.2442,-9.77756 L -14.25,-10
 L -14.2442,-10.2224 L -14.2267,-10.4442 L -14.1977,-10.6648 L -14.1571,-10.8836 L -14.1052,-11.1 L -14.042,-11.3133
 L -13.9677,-11.5231 L -13.8826,-11.7286 L -13.7868,-11.9295 L -13.6806,-12.125 L -13.5643,-12.3147 L -13.4383,-12.4981
 L -13.3029,-12.6746 L -13.1584,-12.8438 L -13.0052,-13.0052 L -12.8438,-13.1584 L -12.6746,-13.3029 L -12.4981,-13.4383
 L -12.3147,-13.5643 L -12.125,-13.6806 L -11.9295,-13.7868 L -11.7286,-13.8826 L -11.5231,-13.9677 L -11.3133,-14.042
 L -11.1,-14.1052 L -10.8836,-14.1571 L -10.6648,-14.1977 L -10.4442,-14.2267 L -10.2224,-14.2442 L -9.99998,-14.25
 L -9.77756,-14.2442 L -9.55574,-14.2267 L -9.33514,-14.1977 L -9.11636,-14.1571 L -8.90001,-14.1052 L -8.68668,-14.042
 L -8.47693,-13.9677 L -8.27136,-13.8826 L -8.07053,-13.7868 L -7.875,-13.6806 L -7.68527,-13.5643 L -7.50191,-13.4383
 L -7.32538,-13.3029 L -7.15619,-13.1584 L -6.99478,-13.0052 L -6.84163,-12.8438 L -6.69713,-12.6746 L -6.56168,-12.4981
 L -6.43564,-12.3147 L -6.31938,-12.125 L -6.21321,-11.9295 L -6.11743,-11.7286 L -6.03227,-11.5231 L -5.95801,-11.3133
 L -5.89481,-11.1 L -5.84286,-10.8836 L -5.80232,-10.6648 L -5.77327,-10.4442 L -5.75581,-10.2224 L -5.75,-10
 L -5.75581,-9.77756 L -5.77327,-9.55574 L -5.80232,-9.33514 L -5.84286,-9.11636 L -5.89481,-8.90001 L -5.95801,-8.68668
 L -6.03227,-8.47693 L -6.11743,-8.27136 L -6.21321,-8.07053 L -6.31938,-7.875 L -6.43564,-7.68527 L -6.56168,-7.50191
 L -6.69713,-7.32538 L -6.84163,-7.15619 L -6.99478,-6.99478 L -7.15619,-6.84163 L -7.32538,-6.69713 L -7.50191,-6.56168
 L -7.68527,-6.43564 L -7.875,-6.31938 L -8.07053,-6.21321 L -8.27136,-6.11743 L -8.47693,-6.03227 L -8.68668,-5.95801
 L -8.90001,-5.89481 L -9.11636,-5.84286 L -9.33514,-5.80232 L -9.55574,-5.77327 L -9.77756,-5.75581 L -10,-5.75
 z
M 9.77756,-5.75581 L 9.55574,-5.77327 L 9.33514,-5.80232 L 9.11636,-5.84286 L 8.90001,-5.89481 L 8.68668,-5.95801
 L 8.47693,-6.03227 L 8.27136,-6.11743 L 8.07053,-6.21321 L 7.87498,-6.31938 L 7.68527,-6.43564 L 7.50191,-6.56168
 L 7.32538,-6.69713 L 7.15619,-6.84163 L 6.99478,-6.99478 L 6.84163,-7.15619 L 6.69713,-7.32538 L 6.56168,-7.50191
 L 6.43564,-7.68527 L 6.31938,-7.875 L 6.21321,-8.07053 L 6.11743,-8.27136 L 6.03227,-8.47693 L 5.95801,-8.68668
 L 5.89481,-8.90001 L 5.84286,-9.11636 L 5.80232,-9.33514 L 5.77327,-9.55574 L 5.75581,-9.77756 L 5.75,-10
 L 5.75581,-10.2224 L 5.77327,-10.4442 L 5.80232,-10.6648 L 5.84286,-10.8836 L 5.89481,-11.1 L 5.95801,-11.3133
 L 6.03227,-11.5231 L 6.11743,-11.7286 L 6.21321,-11.9295 L 6.31938,-12.125 L 6.43564,-12.3147 L 6.56168,-12.4981
 L 6.69713,-12.6746 L 6.84163,-12.8438 L 6.99478,-13.0052 L 7.15619,-13.1584 L 7.32538,-13.3029 L 7.50191,-13.4383
 L 7.68527,-13.5643 L 7.875,-13.6806 L 8.07053,-13.7868 L 8.27136,-13.8826 L 8.47693,-13.9677 L 8.68668,-14.042
 L 8.90001,-14.1052 L 9.11636,-14.1571 L 9.33514,-14.1977 L 9.55574,-14.2267 L 9.77756,-14.2442 L 10,-14.25
 L 10.2224,-14.2442 L 10.4442,-14.2267 L 10.6648,-14.1977 L 10.8836,-14.1571 L 11.1,-14.1052 L 11.3133,-14.042
 L 11.5231,-13.9677 L 11.7286,-13.8826 L 11.9295,-13.7868 L 12.125,-13.6806 L 12.3147,-13.5643 L 12.4981,-13.4383
 L 12.6746,-13.3029 L 12.8438,-13.1584 L 13.0052,-13.0052 L 13.1584,-12.8438 L 13.3029,-12.6746 L 13.4383,-12.4981
 L 13.5643,-12.3147 L 13.6806,-12.125 L 13.7868,-11.9295 L 13.8826,-11.7286 L 13.9677,-11.5231 L 14.042,-11.3133
 L 14.1052,-11.1 L 14.1571,-10.8836 L 14.1977,-10.6648 L 14.2267,-10.4442 L 14.2442,-10.2224 L 14.25,-10
 L 14.2442,-9.77756 L 14.2267,-9.55574 L 14.1977,-9.33514 L 14.1571,-9.11636 L 14.1052,-8.90001 L 14.042,-8.68668
 L 13.9677,-8.47693 L 13.8826,-8.27136 L 13.7868,-8.07053 L 13.6806,-7.875 L 13.5643,-7.68527 L 13.4383,-7.50191
 L 13.3029,-7.32538 L 13.1584,-7.15619 L 13.0052,-6.99478 L 12.8438,-6.84163 L 12.6746,-6.69713 L 12.4981,-6.56168
 L 12.3147,-6.43564 L 12.125,-6.31938 L 11.9295,-6.21321 L 11.7286,-6.11743 L 11.5231,-6.03227 L 11.3133,-5.95801
 L 11.1,-5.89481 L 10.8836,-5.84286 L 10.6648,-5.80232 L 10.4442,-5.77327 L 10.2224,-5.75581 L 10,-5.75
 z
M -15,1.75 L -15.3414,1.71637 L -15.6697,1.61678 L -15.9722,1.45506 L -16.2374,1.23743 L -16.4551,0.972244
 L -16.6168,0.669693 L -16.7164,0.3414 L -16.75,-0 L -16.7164,-0.3414 L -16.6168,-0.669693 L -16.4551,-0.972244
 L -16.2374,-1.23743 L -15.9722,-1.45506 L -15.6697,-1.61678 L -15.3414,-1.71637 L -15,-1.75 L 15,-1.75
 L 15.3414,-1.71637 L 15.6697,-1.61678 L 15.9722,-1.45506 L 16.2374,-1.23743 L 16.4551,-0.972244 L 16.6168,-0.669693
 L 16.7164,-0.3414 L 16.75,-0 L 16.7164,0.3414 L 16.6168,0.669693 L 16.4551,0.972244 L 16.2374,1.23743
 L 15.9722,1.45506 L 15.6697,1.61678 L 15.3414,1.71637 L 15,1.75 z
M -10.2224,14.2442 L -10.4442,14.2267 L -10.6648,14.1977 L -10.8836,14.1571 L -11.1,14.1052 L -11.3133,14.042
 L -11.5231,13.9677 L -11.7286,13.8826 L -11.9295,13.7868 L -12.125,13.6806 L -12.3147,13.5643 L -12.4981,13.4383
 L -12.6746,13.3029 L -12.8438,13.1584 L -13.0052,13.0052 L -13.1584,12.8438 L -13.3029,12.6746 L -13.4383,12.4981
 L -13.5643,12.3147 L -13.6806,12.125 L -13.7868,11.9295 L -13.8826,11.7286 L -13.9677,11.5231 L -14.042,11.3133
 L -14.1052,11.1 L -14.1571,10.8836 L -14.1977,10.6648 L -14.2267,10.4442 L -14.2442,10.2224 L -14.25,9.99998
 L -14.2442,9.77756 L -14.2267,9.55574 L -14.1977,9.33514 L -14.1571,9.11636 L -14.1052,8.90001 L -14.042,8.68668
 L -13.9677,8.47693 L -13.8826,8.27136 L -13.7868,8.07053 L -13.6806,7.875 L -13.5643,7.68527 L -13.4383,7.50191
 L -13.3029,7.32538 L -13.1584,7.15619 L -13.0052,6.99478 L -12.8438,6.84163 L -12.6746,6.69713 L -12.4981,6.56168
 L -12.3147,6.43564 L -12.125,6.31938 L -11.9295,6.21321 L -11.7286,6.11743 L -11.5231,6.03227 L -11.3133,5.95801
 L -11.1,5.89481 L -10.8836,5.84286 L -10.6648,5.80232 L -10.4442,5.77327 L -10.2224,5.75581 L -9.99998,5.75
 L -9.77756,5.75581 L -9.55574,5.77327 L -9.33514,5.80232 L -9.11636,5.84286 L -8.90001,5.89481 L -8.68668,5.95801
 L -8.47693,6.03227 L -8.27136,6.11743 L -8.07053,6.21321 L -7.875,6.31938 L -7.68527,6.43564 L -7.50191,6.56168
 L -7.32538,6.69713 L -7.15619,6.84163 L -6.99478,6.99478 L -6.84163,7.15619 L -6.69713,7.32538 L -6.56168,7.50191
 L -6.43564,7.68527 L -6.31938,7.875 L -6.21321,8.07053 L -6.11743,8.27136 L -6.03227,8.47693 L -5.95801,8.68668
 L -5.89481,8.90001 L -5.84286,9.11636 L -5.80232,9.33514 L -5.77327,9.55574 L -5.75581,9.77756 L -5.75,10
 L -5.75581,10.2224 L -5.77327,10.4442 L -5.80232,10.6648 L -5.84286,10.8836 L -5.89481,11.1 L -5.95801,11.3133
 L -6.03227,11.5231 L -6.11743,11.7286 L -6.21321,11.9295 L -6.31938,12.125 L -6.43564,12.3147 L -6.56168,12.4981
 L -6.69713,12.6746 L -6.84163,12.8438 L -6.99478,13.0052 L -7.15619,13.1584 L -7.32538,13.3029 L -7.50191,13.4383
 L -7.68527,13.5643 L -7.875,13.6806 L -8.07053,13.7868 L -8.27136,13.8826 L -8.47693,13.9677 L -8.68668,14.042
 L -8.90001,14.1052 L -9.11636,14.1571 L -9.33514,14.1977 L -9.55574,14.2267 L -9.77756,14.2442 L -10,14.25
 z
M 9.77756,14.2442 L 9.55574,14.2267 L 9.33514,14.1977 L 9.11636,14.1571 L 8.90001,14.1052 L 8.68668,14.042
 L 8.47693,13.9677 L 8.27136,13.8826 L 8.07053,13.7868 L 7.87498,13.6806 L 7.68527,13.5643 L 7.50191,13.4383
 L 7.32538,13.3029 L 7.15619,13.1584 L 6.99478,13.0052 L 6.84163,12.8438 L 6.69713,12.6746 L 6.56168,12.4981
 L 6.43564,12.3147 L 6.31938,12.125 L 6.21321,11.9295 L 6.11743,11.7286 L 6.03227,11.5231 L 5.95801,11.3133
 L 5.89481,11.1 L 5.84286,10.8836 L 5.80232,10.6648 L 5.77327,10.4442 L 5.75581,10.2224 L 5.75,9.99998
 L 5.75581,9.77756 L 5.77327,9.55574 L 5.80232,9.33514 L 5.84286,9.11636 L 5.89481,8.90001 L 5.95801,8.68668
 L 6.03227,8.47693 L 6.11743,8.27136 L 6.21321,8.07053 L 6.31938,7.875 L 6.43564,7.68527 L 6.56168,7.50191
 L 6.69713,7.32538 L 6.84163,7.15619 L 6.99478,6.99478 L 7.15619,6.84163 L 7.32538,6.69713 L 7.50191,6.56168
 L 7.68527,6.43564 L 7.875,6.31938 L 8.07053,6.21321 L 8.27136,6.11743 L 8.47693,6.03227 L 8.68668,5.95801
 L 8.90001,5.89481 L 9.11636,5.84286 L 9.33514,5.80232 L 9.55574,5.77327 L 9.77756,5.75581 L 10,5.75
 L 10.2224,5.75581 L 10.4442,5.77327 L 10.6648,5.80232 L 10.8836,5.84286 L 11.1,5.89481 L 11.3133,5.95801
 L 11.5231,6.03227 L 11.7286,6.11743 L 11.9295,6.21321 L 12.125,6.31938 L 12.3147,6.43564 L 12.4981,6.56168
 L 12.6746,6.69713 L 12.8438,6.84163 L 13.0052,6.99478 L 13.1584,7.15619 L 13.3029,7.32538 L 13.4383,7.50191
 L 13.5643,7.68527 L 13.6806,7.875 L 13.7868,8.07053 L 13.8826,8.27136 L 13.9677,8.47693 L 14.042,8.68668
 L 14.1052,8.90001 L 14.1571,9.11636 L 14.1977,9.33514 L 14.2267,9.55574 L 14.2442,9.77756 L 14.25,10
 L 14.2442,10.2224 L 14.2267,10.4442 L 14.1977,10.6648 L 14.1571,10.8836 L 14.1052,11.1 L 14.042,11.3133
 L 13.9677,11.5231 L 13.8826,11.7286 L 13.7868,11.9295 L 13.6806,12.125 L 13.5643,12.3147 L 13.4383,12.4981
 L 13.3029,12.6746 L 13.1584,12.8438 L 13.0052,13.0052 L 12.8438,13.1584 L 12.6746,13.3029 L 12.4981,13.4383
 L 12.3147,13.5643 L 12.125,13.6806 L 11.9295,13.7868 L 11.7286,13.8826 L 11.5231,13.9677 L 11.3133,14.042
 L 11.1,14.1052 L 10.8836,14.1571 L 10.6648,14.1977 L 10.4442,14.2267 L 10.2224,14.2442 L 10,14.25
 z
" stroke="black" fill="lightgray" stroke-width="0.5"/>
</svg>
