<?xml version="1.0" standalone="no"?>
<!DOCTYPE svg PUBLIC "-//W3C//DTD SVG 1.1//EN" "http://www.w3.org/Graphics/SVG/1.1/DTD/svg11.dtd">
<svg width="60mm" height="60mm" viewBox="-30 -30 60 60" xmlns="http://www.w3.org/2000/svg" version="1.1">
<title>OpenSCAD Model</title>
<path d="
M 27.5853,29.9424 L 28.1481,29.7716 L 28.6667,29.4944 L 29.1213,29.1213 L 29.4944,28.6667 L 29.7716,28.1481
 L 29.9424,27.5853 L 30,27 L 30,-27 L 29.9424,-27.5853 L 29.7716,-28.1481 L 29.4944,-28.6667
 L 29.1213,-29.1213 L 28.6667,-29.4944 L 28.1481,-29.7716 L 27.5853,-29.9424 L 27,-30 L -27,-30
 L -27.5853,-29.9424 L -28.1481,-29.7716 L -28.6667,-29.4944 L -29.1213,-29.1213 L -29.4944,-28.6667 L -29.7716,-28.1481
 L -29.9424,-27.5853 L -30,-27 L -30,27 L -29.9424,27.5853 L -29.7716,28.1481 L -29.4944,28.6667
 L -29.1213,29.1213 L -28.6667,29.4944 L -28.1481,29.7716 L -27.5853,29.9424 L -27,30 L 27,30
 z
M -23.4389,-20.7932 L -23.861,-20.9213 L -24.25,-21.1292 L -24.591,-21.409 L -24.8708,-21.75 L -25.0787,-22.139
 L -25.2068,-22.561 L -25.25,-23 L -25.2068,-23.4389 L -25.0787,-23.861 L -24.8708,-24.25 L -24.591,-24.591
 L -24.25,-24.8708 L -23.861,-25.0787 L -23.4389,-25.2068 L -23,-25.25 L -22.561,-25.2068 L -22.139,-25.0787
 L -21.75,-24.8708 L -21.409,-24.591 L -21.1292,-24.25 L -20.9213,-23.861 L -20.7932,-23.4389 L -20.75,-23
 L -20.7932,-22.561 L -20.9213,-22.139 L -21.1292,-21.75 L -21.409,-21.409 L -21.75,-21.1292 L -22.139,-20.9213
 L -22.561,-20.7932 L -23,-20.75 z
M 22.561,-20.7932 L 22.139,-20.9213 L 21.75,-21.1292 L 21.409,-21.409 L 21.1292,-21.75 L 20.9213,-22.139
 L 20.7932,-22.561 L 20.75,-23 L 20.7932,-23.4389 L 20.9213,-23.861 L 21.1292,-24.25 L 21.409,-24.591
 L 21.75,-24.8708 L 22.139,-25.0787 L 22.561,-25.2068 L 23,-25.25 L 23.4389,-25.2068 L 23.861,-25.0787
 L 24.25,-24.8708 L 24.591,-24.591 L 24.8708,-24.25 L 25.0787,-23.861 L 25.2068,-23.4389 L 25.25,-23
 L 25.2068,-22.561 L 25.0787,-22.139 L 24.8708,-21.75 L 24.591,-21.409 L 24.25,-21.1292 L 23.861,-20.9213
 L 23.4389,-20.7932 L 23,-20.75 z
M 2.25742,-12.8025 L 1.87984,-12.9081 L 1.53012,-13.0853 L 1.22169,-13.3274 L 0.966415,-13.625 L 0.774094,-13.9666
 L 0.65213,-14.3392 L 0.605194,-14.7285 L 0.635101,-15.1194 L 0.740692,-15.497 L 0.917938,-15.8467 L 1.15999,-16.1551
 L 1.45757,-16.4104 L 1.79922,-16.6027 L 2.17183,-16.7247 L 2.56108,-16.7716 L 2.95201,-16.7417 L 3.32959,-16.6361
 L 3.67932,-16.4589 L 3.98775,-16.2168 L 4.24303,-15.9193 L 4.43533,-15.5776 L 4.55731,-15.205 L 4.60423,-14.8157
 L 4.57433,-14.4248 L 4.46873,-14.0472 L 4.2915,-13.6975 L 4.04944,-13.3891 L 3.75186,-13.1338 L 3.4102,-12.9415
 L 3.0376,-12.8195 L 2.64835,-12.7726 z
M -8.01762,-11.0585 L -8.38457,-11.1966 L -8.71751,-11.4037 L -9.00368,-11.6717 L -9.23204,-11.9904 L -9.39386,-12.3475
 L -9.48288,-12.7293 L -9.49571,-13.1212 L -9.43184,-13.508 L -9.29373,-13.875 L -9.0867,-14.2079 L -8.81868,-14.494
 L -8.49998,-14.7224 L -8.14287,-14.8842 L -7.76105,-14.9733 L -7.36919,-14.9861 L -6.98236,-14.9222 L -6.61542,-14.7841
 L -6.28247,-14.5771 L -5.99631,-14.3091 L -5.76794,-13.9904 L -5.60612,-13.6333 L -5.51711,-13.2514 L -5.50427,-12.8596
 L -5.56815,-12.4727 L -5.70625,-12.1058 L -5.91328,-11.7729 L -6.1813,-11.4867 L -6.49998,-11.2583 L -6.85712,-11.0965
 L -7.23894,-11.0075 L -7.6308,-10.9947 z
M 10.931,-7.72171 L 10.5672,-7.86778 L 10.2388,-8.08203 L 9.95857,-8.35623 L 9.73721,-8.67982 L 9.58322,-9.04039
 L 9.50255,-9.42407 L 9.49828,-9.81612 L 9.57056,-10.2015 L 9.71664,-10.5653 L 9.93089,-10.8936 L 10.2051,-11.1739
 L 10.5287,-11.3953 L 10.8893,-11.5492 L 11.2729,-11.6299 L 11.665,-11.6342 L 12.0503,-11.5619 L 12.4142,-11.4158
 L 12.7425,-11.2016 L 13.0228,-10.9274 L 13.2441,-10.6038 L 13.3981,-10.2432 L 13.4788,-9.85954 L 13.483,-9.4675
 L 13.4108,-9.08215 L 13.2647,-8.71831 L 13.0504,-8.38995 L 12.7762,-8.10971 L 12.4526,-7.88835 L 12.0921,-7.73438
 L 11.7084,-7.65369 L 11.3163,-7.64941 z
M 14.6098,1.96156 L 14.2346,1.84775 L 13.8889,1.66293 L 13.5858,1.4142 L 13.3371,1.11113 L 13.1522,0.765366
 L 13.0384,0.390167 L 13,-0 L 13.0384,-0.390167 L 13.1522,-0.765366 L 13.3371,-1.11113 L 13.5858,-1.4142
 L 13.8889,-1.66293 L 14.2346,-1.84775 L 14.6098,-1.96156 L 15,-2 L 15.3902,-1.96156 L 15.7654,-1.84775
 L 16.1111,-1.66293 L 16.4142,-1.4142 L 16.6629,-1.11113 L 16.8477,-0.765366 L 16.9616,-0.390167 L 17,-0
 L 16.9616,0.390167 L 16.8477,0.765366 L 16.6629,1.11113 L 16.4142,1.4142 L 16.1111,1.66293 L 15.7654,1.84775
 L 15.3902,1.96156 L 15,2 z
M -0.390167,1.96156 L -0.765366,1.84775 L -1.11113,1.66293 L -1.4142,1.4142 L -1.66293,1.11113 L -1.84775,0.765366
 L -1.96156,0.390167 L -2,-0 L -1.96156,-0.390167 L -1.84775,-0.765366 L -1.66293,-1.11113 L -1.4142,-1.4142
 L -1.11113,-1.66293 L -0.765366,-1.84775 L -0.390167,-1.96156 L 0,-2 L 0.390167,-1.96156 L 0.765366,-1.84775
 L 1.11113,-1.66293 L 1.4142,-1.4142 L 1.66293,-1.11113 L 1.84775,-0.765366 L 1.96156,-0.390167 L 2,-0
 L 1.96156,0.390167 L 1.84775,0.765366 L 1.66293,1.11113 L 1.4142,1.4142 L 1.11113,1.66293 L 0.765366,1.84775
 L 0.390167,1.96156 L 0,2 z
M -14.5708,7.07298 L -14.9406,6.94292 L -15.278,6.74318 L -15.5699,6.48148 L -15.8052,6.16785 L -15.9748,5.81433
 L -16.0721,5.43454 L -16.0935,5.04306 L -16.0381,4.65492 L -15.908,4.28506 L -15.7083,3.94768 L -15.4466,3.65575
 L -15.1329,3.42047 L -14.7794,3.25092 L -14.3996,3.15356 L -14.0081,3.1322 L -13.62,3.18761 L -13.2502,3.31767
 L -12.9128,3.51741 L -12.6208,3.77911 L -12.3856,4.09274 L -12.216,4.44626 L -12.1187,4.82605 L -12.0973,5.21753
 L -12.1527,5.60567 L -12.2828,5.97552 L -12.4825,6.31291 L -12.7442,6.60484 L -13.0578,6.84012 L -13.4113,7.00967
 L -13.7911,7.10703 L -14.1826,7.12839 z
M 11.2729,11.6299 L 10.8893,11.5492 L 10.5287,11.3953 L 10.2051,11.1739 L 9.93089,10.8936 L 9.71664,10.5653
 L 9.57056,10.2015 L 9.49828,9.81612 L 9.50255,9.42407 L 9.58322,9.04039 L 9.73721,8.67982 L 9.95857,8.35623
 L 10.2388,8.08203 L 10.5672,7.86778 L 10.931,7.72171 L 11.3163,7.64941 L 11.7084,7.65369 L 12.0921,7.73438
 L 12.4526,7.88835 L 12.7762,8.10971 L 13.0504,8.38995 L 13.2647,8.71831 L 13.4108,9.08215 L 13.483,9.4675
 L 13.4788,9.85954 L 13.3981,10.2432 L 13.2441,10.6038 L 13.0228,10.9274 L 12.7425,11.2016 L 12.4142,11.4158
 L 12.0503,11.5619 L 11.665,11.6342 z
M -7.76105,14.9733 L -8.14287,14.8842 L -8.5,14.7224 L -8.81868,14.494 L -9.0867,14.2079 L -9.29373,13.875
 L -9.43184,13.508 L -9.49571,13.1212 L -9.48288,12.7293 L -9.39386,12.3475 L -9.23204,11.9904 L -9.00368,11.6717
 L -8.71751,11.4037 L -8.38457,11.1966 L -8.01762,11.0585 L -7.6308,10.9947 L -7.23894,11.0075 L -6.85712,11.0965
 L -6.5,11.2583 L -6.1813,11.4867 L -5.91328,11.7729 L -5.70625,12.1058 L -5.56815,12.4727 L -5.50427,12.8596
 L -5.51711,13.2514 L -5.60612,13.6333 L -5.76794,13.9904 L -5.99631,14.3091 L -6.28247,14.5771 L -6.61542,14.7841
 L -6.98236,14.9222 L -7.36919,14.9861 z
M 2.17183,16.7247 L 1.79922,16.6027 L 1.45757,16.4104 L 1.15999,16.1551 L 0.917938,15.8467 L 0.740692,15.497
 L 0.635101,15.1194 L 0.605194,14.7285 L 0.65213,14.3392 L 0.774094,13.9666 L 0.966415,13.625 L 1.22169,13.3274
 L 1.53012,13.0853 L 1.87984,12.9081 L 2.25742,12.8025 L 2.64835,12.7726 L 3.0376,12.8195 L 3.4102,12.9415
 L 3.75186,13.1338 L 4.04944,13.3891 L 4.2915,13.6975 L 4.46873,14.0472 L 4.57433,14.4248 L 4.60423,14.8157
 L 4.55731,15.205 L 4.43533,15.5776 L 4.24303,15.9193 L 3.98775,16.2168 L 3.67932,16.4589 L 3.32959,16.6361
 L 2.95201,16.7417 L 2.56108,16.7716 z
M -23.4389,25.2068 L -23.861,25.0787 L -24.25,24.8708 L -24.591,24.591 L -24.8708,24.25 L -25.0787,23.861
 L -25.2068,23.4389 L -25.25,23 L -25.2068,22.561 L -25.0787,22.139 L -24.8708,21.75 L -24.591,21.409
 L -24.25,21.1292 L -23.861,20.9213 L -23.4389,20.7932 L -23,20.75 L -22.561,20.7932 L -22.139,20.9213
 L -21.75,21.1292 L -21.409,21.409 L -21.1292,21.75 L -20.9213,22.139 L -20.7932,22.561 L -20.75,23
 L -20.7932,23.4389 L -20.9213,23.861 L -21.1292,24.25 L -21.409,24.591 L -21.75,24.8708 L -22.139,25.0787
 L -22.561,25.2068 L -23,25.25 z
M 22.561,25.2068 L 22.139,25.0787 L 21.75,24.8708 L 21.409,24.591 L 21.1292,24.25 L 20.9213,23.861
 L 20.7932,23.4389 L 20.75,23 L 20.7932,22.561 L 20.9213,22.139 L 21.1292,21.75 L 21.409,21.409
 L 21.75,21.1292 L 22.139,20.9213 L 22.561,20.7932 L 23,20.75 L 23.4389,20.7932 L 23.861,20.9213
 L 24.25,21.1292 L 24.591,21.409 L 24.8708,21.75 L 25.0787,22.139 L 25.2068,22.561 L 25.25,23
 L 25.2068,23.4389 L 25.0787,23.861 L 24.8708,24.25 L 24.591,24.591 L 24.25,24.8708 L 23.861,25.0787
 L 23.4389,25.2068 L 23,25.25 z
" stroke="black" fill="lightgray" stroke-width="0.5"/>
</svg>
