<?xml version="1.0" standalone="no"?>
<!DOCTYPE svg PUBLIC "-//W3C//DTD SVG 1.1//EN" "http://www.w3.org/Graphics/SVG/1.1/DTD/svg11.dtd">
<svg width="60mm" height="60mm" viewBox="-30 -30 60 60" xmlns="http://www.w3.org/2000/svg" version="1.1">
<title>OpenSCAD Model</title>
<path d="
M 27.5853,29.9424 L 28.1481,29.7716 L 28.6667,29.4944 L 29.1213,29.1213 L 29.4944,28.6667 L 29.7716,28.1481
 L 29.9424,27.5853 L 30,27 L 30,-27 L 29.9424,-27.5853 L 29.7716,-28.1481 L 29.4944,-28.6667
 L 29.1213,-29.1213 L 28.6667,-29.4944 L 28.1481,-29.7716 L 27.5853,-29.9424 L 27,-30 L -27,-30
 L -27.5853,-29.9424 L -28.1481,-29.7716 L -28.6667,-29.4944 L -29.1213,-29.1213 L -29.4944,-28.6667 L -29.7716,-28.1481
 L -29.9424,-27.5853 L -30,-27 L -30,27 L -29.9424,27.5853 L -29.7716,28.1481 L -29.4944,28.6667
 L -29.1213,29.1213 L -28.6667,29.4944 L -28.1481,29.7716 L -27.5853,29.9424 L -27,30 L 27,30
 z
M -23.4389,-20.7932 L -23.861,-20.9213 L -24.25,-21.1292 L -24.591,-21.409 L -24.8708,-21.75 L -25.0787,-22.139
 L -25.2068,-22.561 L -25.25,-23 L -25.2068,-23.4389 L -25.0787,-23.861 L -24.8708,-24.25 L -24.591,-24.591
 L -24.25,-24.8708 L -23.861,-25.0787 L -23.4389,-25.2068 L -23,-25.25 L -22.561,-25.2068 L -22.139,-25.0787
 L -21.75,-24.8708 L -21.409,-24.591 L -21.1292,-24.25 L -20.9213,-23.861 L -20.7932,-23.4389 L -20.75,-23
 L -20.7932,-22.561 L -20.9213,-22.139 L -21.1292,-21.75 L -21.409,-21.409 L -21.75,-21.1292 L -22.139,-20.9213
 L -22.561,-20.7932 L -23,-20.75 z
M 22.561,-20.7932 L 22.139,-20.9213 L 21.75,-21.1292 L 21.409,-21.409 L 21.1292,-21.75 L 20.9213,-22.139
 L 20.7932,-22.561 L 20.75,-23 L 20.7932,-23.4389 L 20.9213,-23.861 L 21.1292,-24.25 L 21.409,-24.591
 L 21.75,-24.8708 L 22.139,-25.0787 L 22.561,-25.2068 L 23,-25.25 L 23.4389,-25.2068 L 23.861,-25.0787
 L 24.25,-24.8708 L 24.591,-24.591 L 24.8708,-24.25 L 25.0787,-23.861 L 25.2068,-23.4389 L 25.25,-23
 L 25.2068,-22.561 L 25.0787,-22.139 L 24.8708,-21.75 L 24.591,-21.409 L 24.25,-21.1292 L 23.861,-20.9213
 L 23.4389,-20.7932 L 23,-20.75 z
M -1.20372,22.9685 L -2.40414,22.874 L -3.59799,22.7168 L -4.78197,22.4974 L -5.95284,22.2163 L -7.10738,21.8743
 L -8.24246,21.4723 L -9.35493,21.0115 L -10.4418,20.4931 L -11.5,19.9186 L -12.5267,19.2894 L -13.5191,18.6074
 L -14.4744,17.8743 L -15.39,17.0923 L -16.2634,16.2634 L -17.0923,15.39 L -17.8743,14.4744 L -18.6074,13.5191
 L -19.2894,12.5267 L -19.9186,11.5 L -20.4931,10.4418 L -21.0115,9.35493 L -21.4723,8.24246 L -21.8743,7.10738
 L -22.2163,5.95284 L -22.4974,4.78197 L -22.7168,3.59799 L -22.874,2.40414 L -22.9685,1.20372 L -23,-0
 L -22.9685,-1.20372 L -22.874,-2.40414 L -22.7168,-3.59799 L -22.4974,-4.78197 L -22.2163,-5.95284 L -21.8743,-7.10738
 L -21.4723,-8.24246 L -21.0115,-9.35493 L -20.4931,-10.4418 L -19.9186,-11.5 L -19.2894,-12.5267 L -18.6074,-13.5191
 L -17.8743,-14.4744 L -17.0923,-15.39 L -16.2634,-16.2634 L -15.39,-17.0923 L -14.4744,-17.8743 L -13.5191,-18.6074
 L -12.5267,-19.2894 L -11.5,-19.9186 L -10.4418,-20.4931 L -9.35493,-21.0115 L -8.24246,-21.4723 L -7.10738,-21.8743
 L -5.95284,-22.2163 L -4.78197,-22.4974 L -3.59799,-22.7168 L -2.40414,-22.874 L -1.20372,-22.9685 L 0,-23
 L 1.20372,-22.9685 L 2.40414,-22.874 L 3.59799,-22.7168 L 4.78197,-22.4974 L 5.95284,-22.2163 L 7.10738,-21.8743
 L 8.24246,-21.4723 L 9.35493,-21.0115 L 10.4418,-20.4931 L 11.5,-19.9186 L 12.5267,-19.2894 L 13.5191,-18.6074
 L 14.4744,-17.8743 L 15.39,-17.0923 L 16.2634,-16.2634 L 17.0923,-15.39 L 17.8743,-14.4744 L 18.6074,-13.5191
 L 19.2894,-12.5267 L 19.9186,-11.5 L 20.4931,-10.4418 L 21.0115,-9.35493 L 21.4723,-8.24246 L 21.8743,-7.10738
 L 22.2163,-5.95284 L 22.4974,-4.78197 L 22.7168,-3.59799 L 22.874,-2.40414 L 22.9685,-1.20372 L 23,-0
 L 22.9685,1.20372 L 22.874,2.40414 L 22.7168,3.59799 L 22.4974,4.78197 L 22.2163,5.95284 L 21.8743,7.10738
 L 21.4723,8.24246 L 21.0115,9.35493 L 20.4931,10.4418 L 19.9186,11.5 L 19.2894,12.5267 L 18.6074,13.5191
 L 17.8743,14.4744 L 17.0923,15.39 L 16.2634,16.2634 L 15.39,17.0923 L 14.4744,17.8743 L 13.5191,18.6074
 L 12.5267,19.2894 L 11.5,19.9186 L 10.4418,20.4931 L 9.35493,21.0115 L 8.24246,21.4723 L 7.10738,21.8743
 L 5.95284,22.2163 L 4.78197,22.4974 L 3.59799,22.7168 L 2.40414,22.874 L 1.20372,22.9685 L 0,23
 z
M -23.4389,25.2068 L -23.861,25.0787 L -24.25,24.8708 L -24.591,24.591 L -24.8708,24.25 L -25.0787,23.861
 L -25.2068,23.4389 L -25.25,23 L -25.2068,22.561 L -25.0787,22.139 L -24.8708,21.75 L -24.591,21.409
 L -24.25,21.1292 L -23.861,20.9213 L -23.4389,20.7932 L -23,20.75 L -22.561,20.7932 L -22.139,20.9213
 L -21.75,21.1292 L -21.409,21.409 L -21.1292,21.75 L -20.9213,22.139 L -20.7932,22.561 L -20.75,23
 L -20.7932,23.4389 L -20.9213,23.861 L -21.1292,24.25 L -21.409,24.591 L -21.75,24.8708 L -22.139,25.0787
 L -22.561,25.2068 L -23,25.25 z
M 22.561,25.2068 L 22.139,25.0787 L 21.75,24.8708 L 21.409,24.591 L 21.1292,24.25 L 20.9213,23.861
 L 20.7932,23.4389 L 20.75,23 L 20.7932,22.561 L 20.9213,22.139 L 21.1292,21.75 L 21.409,21.409
 L 21.75,21.1292 L 22.139,20.9213 L 22.561,20.7932 L 23,20.75 L 23.4389,20.7932 L 23.861,20.9213
 L 24.25,21.1292 L 24.591,21.409 L 24.8708,21.75 L 25.0787,22.139 L 25.2068,22.561 L 25.25,23
 L 25.2068,23.4389 L 25.0787,23.861 L 24.8708,24.25 L 24.591,24.591 L 24.25,24.8708 L 23.861,25.0787
 L 23.4389,25.2068 L 23,25.25 z
" stroke="black" fill="lightgray" stroke-width="0.5"/>
</svg>
