<?xml version="1.0" encoding="UTF-8" standalone="no"?>
<svg
   xmlns:dc="http://purl.org/dc/elements/1.1/"
   xmlns:cc="http://creativecommons.org/ns#"
   xmlns:rdf="http://www.w3.org/1999/02/22-rdf-syntax-ns#"
   xmlns:svg="http://www.w3.org/2000/svg"
   xmlns="http://www.w3.org/2000/svg"
   xmlns:sodipodi="http://sodipodi.sourceforge.net/DTD/sodipodi-0.dtd"
   xmlns:inkscape="http://www.inkscape.org/namespaces/inkscape"
   width="564.77899mm"
   height="485.5mm"
   viewBox="0 -485 564.77899 485.5"
   version="1.1"
   id="svg6"
   sodipodi:docname="PMMA_mantle_outline_1B.svg"
   inkscape:version="0.92.2 (5c3e80d, 2017-08-06)">
  <metadata
     id="metadata12">
    <rdf:RDF>
      <cc:Work
         rdf:about="">
        <dc:format>image/svg+xml</dc:format>
        <dc:type
           rdf:resource="http://purl.org/dc/dcmitype/StillImage" />
        <dc:title>OpenSCAD Model</dc:title>
      </cc:Work>
    </rdf:RDF>
  </metadata>
  <defs
     id="defs10" />
  <sodipodi:namedview
     pagecolor="#ffffff"
     bordercolor="#666666"
     borderopacity="1"
     objecttolerance="10"
     gridtolerance="10"
     guidetolerance="10"
     inkscape:pageopacity="0"
     inkscape:pageshadow="2"
     inkscape:window-width="1600"
     inkscape:window-height="825"
     id="namedview8"
     showgrid="false"
     fit-margin-top="0"
     fit-margin-left="0"
     fit-margin-right="0"
     fit-margin-bottom="0"
     inkscape:document-units="mm"
     inkscape:zoom="0.25749141"
     inkscape:cx="1068.6614"
     inkscape:cy="917.48036"
     inkscape:window-x="-9"
     inkscape:window-y="-9"
     inkscape:window-maximized="1"
     inkscape:current-layer="svg6" />
  <title
     id="title2">OpenSCAD Model</title>
  <path
     d="m 58.0244,-244.926 0.2798,-0.31 0.3382,-0.246 0.382,-0.17 0.409,-0.087 h 0.4181 l 0.409,0.087 0.3819,0.17 0.3383,0.246 0.2798,0.31 0.1013,0.176 h 26.3461 l 0.1013,-0.176 0.2798,-0.31 0.3383,-0.246 0.3819,-0.17 0.409,-0.087 h 0.4181 l 0.409,0.087 0.382,0.17 0.3382,0.246 0.2798,0.31 0.1014,0.176 H 191.493 l 0.101,-0.176 0.28,-0.31 0.338,-0.246 0.382,-0.17 0.409,-0.087 h 0.418 l 0.409,0.087 0.382,0.17 0.338,0.246 0.28,0.31 0.102,0.176 h 26.346 l 0.101,-0.176 0.28,-0.31 0.338,-0.246 0.382,-0.17 0.409,-0.087 h 0.418 l 0.409,0.087 0.382,0.17 0.338,0.246 0.28,0.31 0.101,0.176 h 115.346 l 0.102,-0.176 0.28,-0.31 0.338,-0.246 0.382,-0.17 0.409,-0.087 h 0.418 l 0.409,0.087 0.382,0.17 0.338,0.246 0.28,0.31 0.101,0.176 h 26.346 l 0.102,-0.176 0.279,-0.31 0.339,-0.246 0.382,-0.17 0.409,-0.087 h 0.418 l 0.409,0.087 0.382,0.17 0.338,0.246 0.28,0.31 0.101,0.176 h 100.346 l 0.102,-0.176 0.279,-0.31 0.339,-0.246 0.382,-0.17 0.408,-0.087 h 0.419 l 0.409,0.087 0.382,0.17 0.338,0.246 0.28,0.31 0.101,0.176 h 26.346 l 0.101,-0.176 0.28,-0.31 0.338,-0.246 0.382,-0.17 0.409,-0.087 h 0.418 l 0.409,0.087 0.382,0.17 0.339,0.246 0.279,0.31 0.102,0.176 h 57.673 v -240 h -57.673 l -0.102,0.176 -0.279,0.31 -0.339,0.246 -0.382,0.17 -0.409,0.087 h -0.418 l -0.409,-0.087 -0.382,-0.17 -0.338,-0.246 -0.28,-0.31 -0.101,-0.176 h -26.346 l -0.101,0.176 -0.28,0.31 -0.338,0.246 -0.382,0.17 -0.409,0.087 h -0.419 l -0.408,-0.087 -0.382,-0.17 -0.339,-0.246 -0.279,-0.31 -0.102,-0.176 H 373.286 l -0.101,0.176 -0.28,0.31 -0.338,0.246 -0.382,0.17 -0.409,0.087 h -0.418 l -0.409,-0.087 -0.382,-0.17 -0.339,-0.246 -0.279,-0.31 -0.102,-0.176 h -26.346 l -0.101,0.176 -0.28,0.31 -0.338,0.246 -0.382,0.17 -0.409,0.087 h -0.418 l -0.409,-0.087 -0.382,-0.17 -0.338,-0.246 -0.28,-0.31 -0.102,-0.176 H 224.716 l -0.101,0.176 -0.28,0.31 -0.338,0.246 -0.382,0.17 -0.409,0.087 h -0.418 l -0.409,-0.087 -0.382,-0.17 -0.338,-0.246 -0.28,-0.31 -0.101,-0.176 h -26.346 l -0.102,0.176 -0.28,0.31 -0.338,0.246 -0.382,0.17 -0.409,0.087 h -0.418 l -0.409,-0.087 -0.382,-0.17 -0.338,-0.246 -0.28,-0.31 -0.101,-0.176 H 91.1467 l -0.1014,0.176 -0.2798,0.31 -0.3382,0.246 -0.382,0.17 -0.409,0.087 h -0.4181 l -0.409,-0.087 -0.3819,-0.17 -0.3383,-0.246 -0.2798,-0.31 -0.1013,-0.176 H 61.3618 l -0.1013,0.176 -0.2798,0.31 -0.3383,0.246 -0.3819,0.17 -0.409,0.087 h -0.4181 l -0.409,-0.087 -0.382,-0.17 -0.3382,-0.246 -0.2798,-0.31 -0.1014,-0.176 H 0.25 v 240 h 57.673 z m 0,245.000432 0.2798,-0.310714 0.3382,-0.245758 0.382,-0.17006 0.409,-0.086929 h 0.4181 l 0.409,0.086929 0.3819,0.17006 0.3383,0.245758 0.2798,0.310714 L 61.3618,0.25 h 26.3461 l 0.1013,-0.175568 0.2798,-0.310714 0.3383,-0.245758 0.3819,-0.17006 0.409,-0.086929 h 0.4181 l 0.409,0.086929 0.382,0.17006 0.3382,0.245758 0.2798,0.310714 L 91.1467,0.25 H 191.493 l 0.101,-0.175568 0.28,-0.310714 0.338,-0.245758 0.382,-0.17006 0.409,-0.086929 h 0.418 l 0.409,0.086929 0.382,0.17006 0.338,0.245758 0.28,0.310714 0.102,0.175568 h 26.346 l 0.101,-0.175568 0.28,-0.310714 0.338,-0.245758 0.382,-0.17006 0.409,-0.086929 h 0.418 l 0.409,0.086929 0.382,0.17006 0.338,0.245758 0.28,0.310714 0.101,0.175568 h 115.346 l 0.102,-0.175568 0.28,-0.310714 0.338,-0.245758 0.382,-0.17006 0.409,-0.086929 h 0.418 l 0.409,0.086929 0.382,0.17006 0.338,0.245758 0.28,0.310714 0.101,0.175568 h 26.346 l 0.102,-0.175568 0.279,-0.310714 0.339,-0.245758 0.382,-0.17006 0.409,-0.086929 h 0.418 l 0.409,0.086929 0.382,0.17006 0.338,0.245758 0.28,0.310714 0.101,0.175568 h 100.346 l 0.102,-0.175568 0.279,-0.310714 0.339,-0.245758 0.382,-0.17006 0.408,-0.086929 h 0.419 l 0.409,0.086929 0.382,0.17006 0.338,0.245758 0.28,0.310714 0.101,0.175568 h 26.346 l 0.101,-0.175568 0.28,-0.310714 0.338,-0.245758 0.382,-0.17006 0.409,-0.086929 h 0.418 l 0.409,0.086929 0.382,0.17006 0.339,0.245758 0.279,0.310714 0.102,0.175568 h 57.673 v -240 h -57.673 l -0.102,0.176 -0.279,0.31 -0.339,0.246 -0.382,0.17 -0.409,0.087 h -0.418 l -0.409,-0.087 -0.382,-0.17 -0.338,-0.246 -0.28,-0.31 -0.101,-0.176 h -26.346 l -0.101,0.176 -0.28,0.31 -0.338,0.246 -0.382,0.17 -0.409,0.087 h -0.419 l -0.408,-0.087 -0.382,-0.17 -0.339,-0.246 -0.279,-0.31 -0.102,-0.176 H 373.286 l -0.101,0.176 -0.28,0.31 -0.338,0.246 -0.382,0.17 -0.409,0.087 h -0.418 l -0.409,-0.087 -0.382,-0.17 -0.339,-0.246 -0.279,-0.31 -0.102,-0.176 h -26.346 l -0.101,0.176 -0.28,0.31 -0.338,0.246 -0.382,0.17 -0.409,0.087 h -0.418 l -0.409,-0.087 -0.382,-0.17 -0.338,-0.246 -0.28,-0.31 -0.102,-0.176 H 224.716 l -0.101,0.176 -0.28,0.31 -0.338,0.246 -0.382,0.17 -0.409,0.087 h -0.418 l -0.409,-0.087 -0.382,-0.17 -0.338,-0.246 -0.28,-0.31 -0.101,-0.176 h -26.346 l -0.102,0.176 -0.28,0.31 -0.338,0.246 -0.382,0.17 -0.409,0.087 h -0.418 l -0.409,-0.087 -0.382,-0.17 -0.338,-0.246 -0.28,-0.31 -0.101,-0.176 H 91.1467 l -0.1014,0.176 -0.2798,0.31 -0.3382,0.246 -0.382,0.17 -0.409,0.087 h -0.4181 l -0.409,-0.087 -0.3819,-0.17 -0.3383,-0.246 -0.2798,-0.31 -0.1013,-0.176 H 61.3618 l -0.1013,0.176 -0.2798,0.31 -0.3383,0.246 -0.3819,0.17 -0.409,0.087 h -0.4181 l -0.409,-0.087 -0.382,-0.17 -0.3382,-0.246 -0.2798,-0.31 -0.1014,-0.176 H 0.25 v 240 h 57.673 z"
     id="path4"
     inkscape:connector-curvature="0"
     style="fill:#d3d3d3;stroke:#000000;stroke-width:0.5" />
</svg>
