<?xml version="1.0" standalone="no"?>
<!DOCTYPE svg PUBLIC "-//W3C//DTD SVG 1.1//EN" "http://www.w3.org/Graphics/SVG/1.1/DTD/svg11.dtd">
<svg width="199mm" height="569mm" viewBox="0 -569 199 569" xmlns="http://www.w3.org/2000/svg" version="1.1">
<title>OpenSCAD Model</title>
<path d="
M 199,-56.8133 L 198.737,-56.9654 L 198.271,-57.385 L 197.902,-57.8924 L 197.647,-58.4654 L 197.516,-59.0788
 L 197.516,-59.706 L 197.647,-60.3195 L 197.902,-60.8924 L 198.271,-61.3998 L 198.737,-61.8195 L 199,-61.9715
 L 199,-87.5982 L 198.737,-87.7502 L 198.271,-88.1699 L 197.902,-88.6773 L 197.647,-89.2502 L 197.516,-89.8637
 L 197.516,-90.4909 L 197.647,-91.1043 L 197.902,-91.6773 L 198.271,-92.1847 L 198.737,-92.6043 L 199,-92.7564
 L 199,-191.383 L 198.737,-191.535 L 198.271,-191.955 L 197.902,-192.462 L 197.647,-193.035 L 197.516,-193.649
 L 197.516,-194.276 L 197.647,-194.889 L 197.902,-195.462 L 198.271,-195.97 L 198.737,-196.389 L 199,-196.541
 L 199,-222.168 L 198.737,-222.32 L 198.271,-222.74 L 197.902,-223.247 L 197.647,-223.82 L 197.516,-224.433
 L 197.516,-225.061 L 197.647,-225.674 L 197.902,-226.247 L 198.271,-226.754 L 198.737,-227.174 L 199,-227.326
 L 199,-340.953 L 198.737,-341.105 L 198.271,-341.524 L 197.902,-342.032 L 197.647,-342.605 L 197.516,-343.218
 L 197.516,-343.845 L 197.647,-344.459 L 197.902,-345.032 L 198.271,-345.539 L 198.737,-345.959 L 199,-346.111
 L 199,-371.738 L 198.737,-371.89 L 198.271,-372.309 L 197.902,-372.817 L 197.647,-373.39 L 197.516,-374.003
 L 197.516,-374.63 L 197.647,-375.244 L 197.902,-375.817 L 198.271,-376.324 L 198.737,-376.744 L 199,-376.896
 L 199,-475.522 L 198.737,-475.674 L 198.271,-476.094 L 197.902,-476.602 L 197.647,-477.174 L 197.516,-477.788
 L 197.516,-478.415 L 197.647,-479.029 L 197.902,-479.602 L 198.271,-480.109 L 198.737,-480.529 L 199,-480.681
 L 199,-506.307 L 198.737,-506.459 L 198.271,-506.879 L 197.902,-507.386 L 197.647,-507.959 L 197.516,-508.573
 L 197.516,-509.2 L 197.647,-509.813 L 197.902,-510.386 L 198.271,-510.894 L 198.737,-511.313 L 199,-511.466
 L 199,-568.279 L 0,-568.279 L 0,-511.466 L 0.263336,-511.313 L 0.729416,-510.894 L 1.09805,-510.386
 L 1.35315,-509.813 L 1.48354,-509.2 L 1.48354,-508.573 L 1.35315,-507.959 L 1.09805,-507.386 L 0.729416,-506.879
 L 0.263336,-506.459 L 0,-506.307 L 0,-480.681 L 0.263336,-480.529 L 0.729416,-480.109 L 1.09805,-479.602
 L 1.35315,-479.029 L 1.48354,-478.415 L 1.48354,-477.788 L 1.35315,-477.174 L 1.09805,-476.602 L 0.729416,-476.094
 L 0.263336,-475.674 L 0,-475.522 L 0,-376.896 L 0.263336,-376.744 L 0.729416,-376.324 L 1.09805,-375.817
 L 1.35315,-375.244 L 1.48354,-374.63 L 1.48354,-374.003 L 1.35315,-373.39 L 1.09805,-372.817 L 0.729416,-372.309
 L 0.263336,-371.89 L 0,-371.738 L 0,-346.111 L 0.263336,-345.959 L 0.729416,-345.539 L 1.09805,-345.032
 L 1.35315,-344.459 L 1.48354,-343.845 L 1.48354,-343.218 L 1.35315,-342.605 L 1.09805,-342.032 L 0.729416,-341.524
 L 0.263336,-341.105 L 0,-340.953 L 0,-227.326 L 0.263336,-227.174 L 0.729416,-226.754 L 1.09805,-226.247
 L 1.35315,-225.674 L 1.48354,-225.061 L 1.48354,-224.433 L 1.35315,-223.82 L 1.09805,-223.247 L 0.729416,-222.74
 L 0.263336,-222.32 L 0,-222.168 L 0,-196.541 L 0.263336,-196.389 L 0.729416,-195.97 L 1.09805,-195.462
 L 1.35315,-194.889 L 1.48354,-194.276 L 1.48354,-193.649 L 1.35315,-193.035 L 1.09805,-192.462 L 0.729416,-191.955
 L 0.263336,-191.535 L 0,-191.383 L 0,-92.7564 L 0.263336,-92.6043 L 0.729416,-92.1847 L 1.09805,-91.6773
 L 1.35315,-91.1043 L 1.48354,-90.4909 L 1.48354,-89.8637 L 1.35315,-89.2502 L 1.09805,-88.6773 L 0.729416,-88.1699
 L 0.263336,-87.7502 L 0,-87.5982 L 0,-61.9715 L 0.263336,-61.8195 L 0.729416,-61.3998 L 1.09805,-60.8924
 L 1.35315,-60.3195 L 1.48354,-59.706 L 1.48354,-59.0788 L 1.35315,-58.4654 L 1.09805,-57.8924 L 0.729416,-57.385
 L 0.263336,-56.9654 L 0,-56.8133 L 0,-0 L 199,-0 z
" stroke="black" fill="lightgray" stroke-width="0.5"/>
</svg>
